# xmcd
#
# Track frame offsets:
# 150
# 12280
# 23735
# 39078
# 54718
# 68198
# 80625
# 92080
# 106289
# 117960
# 133303
# 146486
# 159804
# 171988
# 185900
# 200190
# 212914
# 226016
# 245031
# 256621
# 269804
# 281637
# 293902
# 309083
#
# Disc length: 4272 seconds
#
#
# Revision: 0
# Processed by: cddbd v1.5.1PL0 Copyright (c) Steve Scherf et al.
# Submitted via: FreeRIP 2.942 
#
DISCID=6310ae18
DTITLE=Various Artist - Time Life 1972
DYEAR=1972
DGENRE=Country
TTITLE0=01-It's Gonna Take A Little Bit Longer by Charlie Pride
TTITLE1=02-Rated X by Loretta Lynn
TTITLE2=03-It's Not Love(But It's Not Bad) by Merle Haggard
TTITLE3=04-(I Lost Her Love) On Our Last Date by Conway Twitty
TTITLE4=05-Delta Dawn by Tanua Tucker
TTITLE5=06-Made In Japan by Buck Owens
TTITLE6=07-Soul Song by     Stampley
TTITLE7=08-Loving You Could Never Be Better by George Jones
TTITLE8=09-The Happiest Girl In The Whole U. S. A. by  Fargo
TTITLE9=10-Me And Jesus by Tom T. Hall
TTITLE10=11-I Wonder if They Ever Think of Me by Merle Haggard
TTITLE11=12-Do You Remember These by Statler Brothers
TTITLE12=13-One's On The Way by Loretta Lynn
TTITLE13=14-Good Hearted Woman by Waylon Jennings
TTITLE14=15-The Ceremony by Jones and Wynette
TTITLE15=16-Eleven Roses by Hank Williams Jr.
TTITLE16=17-I Can't Loving You by  Conway Twitty
TTITLE17=18-Old Dods, Children and Watermelon Wine by Tom T. Hall
TTITLE18=19-Whiskey River by     Bush
TTITLE19=20-Lovin' On Back Streets by Mel Street
TTITLE20=21-A Picture of Me Without You by George Jones
TTITLE21=22-Til I Get It Right by Tammy Wynette
TTITLE22=23-Woman (Sensuous Woman) by      Gibson
TTITLE23=24-Think About it Darlin' by         Lewis
EXTD=
EXTT0=
EXTT1=
EXTT2=
EXTT3=
EXTT4=
EXTT5=
EXTT6=
EXTT7=
EXTT8=
EXTT9=
EXTT10=
EXTT11=
EXTT12=
EXTT13=
EXTT14=
EXTT15=
EXTT16=
EXTT17=
EXTT18=
EXTT19=
EXTT20=
EXTT21=
EXTT22=
EXTT23=
PLAYORDER=
